<svg width="19" height="25" viewBox="0 0 19 25" fill="none" xmlns="http://www.w3.org/2000/svg">
<path d="M9.5 0C4.50757 0 0.445946 4.06162 0.445946 9.054C0.445946 15.2497 8.54843 24.3454 8.8934 24.7295C9.21743 25.0904 9.78315 25.0898 10.1066 24.7295C10.4516 24.3454 18.554 15.2497 18.554 9.054C18.554 4.06162 14.4924 0 9.5 0ZM9.5 13.6093C6.98818 13.6093 4.94472 11.5658 4.94472 9.054C4.94472 6.54219 6.98823 4.49873 9.5 4.49873C12.0118 4.49873 14.0552 6.54224 14.0552 9.05405C14.0552 11.5659 12.0118 13.6093 9.5 13.6093Z" fill="#0D4C93"/>
</svg>
